<svg width="358" height="80" viewBox="0 0 358 80" fill="none" xmlns="http://www.w3.org/2000/svg">
<path fill-rule="evenodd" clip-rule="evenodd" d="M14.175 13.8232H61.9953C63.1605 13.8232 64.1059 14.7602 64.1059 15.9148C64.1059 17.0695 63.1605 18.0064 61.9953 18.0064H14.9186C15.1887 19.4883 15.4561 20.9714 15.7249 22.4533C15.9991 23.9716 16.2747 25.4899 16.5544 27.0272H55.0306C56.1957 27.0272 57.1411 27.9642 57.1411 29.1188C57.1411 30.2734 56.1957 31.2104 55.0306 31.2104H17.3225C17.6213 32.822 17.931 34.4661 18.2543 36.1643C18.4535 37.204 18.695 38.5439 18.916 39.7647C19.7714 44.4942 20.1943 46.8278 21.3158 47.6052C22.5505 48.461 25.406 48.4313 31.0392 48.3745C32.9397 48.3556 35.0653 48.3326 36.2072 48.3326C36.9903 48.3326 39.3765 48.3502 41.5348 48.365C48.6893 48.4164 52.3592 48.4421 54.564 47.278C56.7837 46.1071 58.208 43.2233 61.1304 37.3054L62.4319 34.6689C64.608 30.3045 66.9792 25.8929 69.3476 21.4812C70.525 19.2909 71.7024 17.0992 72.8348 14.9495C72.9889 14.6561 73.2045 14.4181 73.4569 14.2342C66.0542 5.53118 54.9719 0 42.5854 0C31.3571 0 21.1998 4.54555 13.8831 11.8776C13.9676 12.4698 14.0631 13.1242 14.175 13.8232Z" fill="#FFCC00"/>
<path fill-rule="evenodd" clip-rule="evenodd" d="M14.175 13.8232H61.9953C63.1605 13.8232 64.1059 14.7602 64.1059 15.9148C64.1059 17.0695 63.1605 18.0064 61.9953 18.0064H14.9186C15.1887 19.4883 15.4561 20.9714 15.7249 22.4533C15.9991 23.9716 16.2747 25.4899 16.5544 27.0272H55.0306C56.1957 27.0272 57.1411 27.9642 57.1411 29.1188C57.1411 30.2734 56.1957 31.2104 55.0306 31.2104H17.3225C17.6213 32.822 17.931 34.4661 18.2543 36.1643C18.4535 37.204 18.695 38.5439 18.916 39.7647C19.7714 44.4942 20.1943 46.8278 21.3158 47.6052C22.5505 48.461 25.406 48.4313 31.0392 48.3745C32.9397 48.3556 35.0653 48.3326 36.2072 48.3326C36.9903 48.3326 39.3765 48.3502 41.5348 48.365C48.6893 48.4164 52.3592 48.4421 54.564 47.278C56.7837 46.1071 58.208 43.2233 61.1304 37.3054L62.4319 34.6689C64.608 30.3045 66.9792 25.8929 69.3476 21.4812C70.525 19.2909 71.7024 17.0992 72.8348 14.9495C72.9889 14.6561 73.2045 14.4181 73.4569 14.2342C66.0542 5.53118 54.9719 0 42.5854 0C31.3571 0 21.1998 4.54555 13.8831 11.8776C13.9676 12.4698 14.0631 13.1242 14.175 13.8232Z" fill="url(#paint0_linear_233_32)"/>
<path fill-rule="evenodd" clip-rule="evenodd" d="M76.1147 17.7252C75.0928 19.6572 74.075 21.5514 73.0586 23.4429C70.7502 27.7397 68.4404 32.0378 66.2084 36.5158C65.3626 38.2139 65.117 38.7088 64.9069 39.136C61.5807 45.8705 59.9599 49.1519 56.5437 50.9555C53.3948 52.6158 49.3688 52.5888 41.5186 52.532C40.4803 52.5252 39.3343 52.5171 36.2073 52.5171C33.5046 52.5171 32.2126 52.5307 31.0734 52.5415C24.5534 52.6091 21.249 52.6429 18.9093 51.0218C16.3621 49.2547 15.8382 46.3627 14.7781 40.5002C14.609 39.5633 14.4207 38.5209 14.1164 36.9322C13.2992 32.649 12.4424 27.9195 11.587 23.1888C11.1709 20.8862 10.7534 18.5837 10.3319 16.2826C10.3141 16.192 10.2991 16.1027 10.2827 16.0135C5.22116 22.6966 2.22241 31.0008 2.22241 40C2.22241 62.0923 20.294 80 42.5854 80C64.8769 80 82.9485 62.0923 82.9485 40C82.9485 31.7539 80.43 24.0919 76.1147 17.7252ZM24.6011 70.625C20.7402 70.625 17.6091 67.522 17.6091 63.6958C17.6091 59.8695 20.7402 56.7666 24.6011 56.7666C28.4621 56.7666 31.5932 59.8695 31.5932 63.6958C31.5932 67.522 28.4635 70.625 24.6011 70.625ZM50.4575 68.5334C47.7616 68.5334 45.576 66.3674 45.576 63.6958C45.576 61.0241 47.7616 58.8582 50.4575 58.8582C53.1534 58.8582 55.3376 61.0241 55.3376 63.6958C55.3376 66.3674 53.1534 68.5334 50.4575 68.5334Z" fill="#FFCC00"/>
<path fill-rule="evenodd" clip-rule="evenodd" d="M76.1147 17.7252C75.0928 19.6572 74.075 21.5514 73.0586 23.4429C70.7502 27.7397 68.4404 32.0378 66.2084 36.5158C65.3626 38.2139 65.117 38.7088 64.9069 39.136C61.5807 45.8705 59.9599 49.1519 56.5437 50.9555C53.3948 52.6158 49.3688 52.5888 41.5186 52.532C40.4803 52.5252 39.3343 52.5171 36.2073 52.5171C33.5046 52.5171 32.2126 52.5307 31.0734 52.5415C24.5534 52.6091 21.249 52.6429 18.9093 51.0218C16.3621 49.2547 15.8382 46.3627 14.7781 40.5002C14.609 39.5633 14.4207 38.5209 14.1164 36.9322C13.2992 32.649 12.4424 27.9195 11.587 23.1888C11.1709 20.8862 10.7534 18.5837 10.3319 16.2826C10.3141 16.192 10.2991 16.1027 10.2827 16.0135C5.22116 22.6966 2.22241 31.0008 2.22241 40C2.22241 62.0923 20.294 80 42.5854 80C64.8769 80 82.9485 62.0923 82.9485 40C82.9485 31.7539 80.43 24.0919 76.1147 17.7252ZM24.6011 70.625C20.7402 70.625 17.6091 67.522 17.6091 63.6958C17.6091 59.8695 20.7402 56.7666 24.6011 56.7666C28.4621 56.7666 31.5932 59.8695 31.5932 63.6958C31.5932 67.522 28.4635 70.625 24.6011 70.625ZM50.4575 68.5334C47.7616 68.5334 45.576 66.3674 45.576 63.6958C45.576 61.0241 47.7616 58.8582 50.4575 58.8582C53.1534 58.8582 55.3376 61.0241 55.3376 63.6958C55.3376 66.3674 53.1534 68.5334 50.4575 68.5334Z" fill="url(#paint1_linear_233_32)"/>
<path d="M9.44905 14.6791C9.12025 12.8836 8.93334 11.5856 8.78327 10.5297L8.77508 10.4661C8.53087 8.75715 8.3999 7.85669 8.3003 7.7661C8.20207 7.67687 7.13928 7.71878 4.89909 7.80666C4.1419 7.83641 3.27556 7.87156 2.15274 7.8986C0.991711 7.92564 0.0271456 7.01437 -0.000140536 5.86379C-0.0274267 4.7132 0.892116 3.75867 2.05314 3.73163C2.99178 3.70864 3.92361 3.67078 4.73401 3.63969C8.1475 3.50448 9.76693 3.44229 11.1353 4.6767C12.3455 5.76779 12.5597 7.19149 12.943 9.87528L12.954 9.94018C13.0508 10.6162 13.1613 11.3855 13.2937 12.2184H61.114C62.2791 12.2184 63.2246 13.1553 63.2246 14.31C63.2246 15.4646 62.2791 16.4016 61.114 16.4016H14.0372C14.3073 17.8834 14.5748 19.3666 14.8435 20.8484C15.1177 22.3667 15.3933 23.8851 15.673 25.4223H54.1492C55.3143 25.4223 56.2598 26.3593 56.2598 27.5139C56.2598 28.6686 55.3143 29.6055 54.1492 29.6055H16.4411C16.7399 31.2172 17.0496 32.8613 17.3729 34.5594C17.5721 35.5978 17.8136 36.939 18.0346 38.1599C18.8901 42.8893 19.313 45.2229 20.4345 46.0003C21.6691 46.8562 24.5246 46.8264 30.1579 46.7697C32.0583 46.7507 34.1839 46.7277 35.3259 46.7277C36.109 46.7277 38.4951 46.744 40.6535 46.7602C47.8079 46.8102 51.4779 46.8373 53.6826 45.6731C55.9023 44.5023 57.3267 41.6184 60.249 35.7005L61.5506 33.0641C63.7266 28.6997 66.0978 24.288 68.4662 19.8763C69.6436 17.686 70.821 15.4943 71.9534 13.3446C72.491 12.3252 73.7611 11.9304 74.7898 12.4617C75.8185 12.9944 76.2169 14.2532 75.6807 15.2726C74.506 17.4994 73.3409 19.6681 72.1758 21.8367C69.8674 26.1335 67.5576 30.4316 65.3256 34.9096C64.4797 36.6077 64.2342 37.1026 64.0241 37.5298C60.6992 44.2643 59.0785 47.5471 55.6609 49.3493C52.512 51.011 48.486 50.9826 40.6357 50.9272C39.5975 50.9204 38.4515 50.9123 35.3245 50.9123C32.6218 50.9123 31.3298 50.9258 30.1906 50.9366C23.6706 51.0029 20.3662 51.0367 18.0278 49.4156C15.4793 47.6485 14.9568 44.7565 13.8967 38.8954C13.7275 37.9584 13.5392 36.916 13.235 35.3274C12.4164 31.0441 11.561 26.3147 10.7042 21.5839C10.2881 19.2814 9.87062 16.9789 9.44905 14.6777V14.6791Z" fill="#1B8284"/>
<path fill-rule="evenodd" clip-rule="evenodd" d="M23.7196 55.1631C27.5806 55.1631 30.7117 58.266 30.7117 62.0923C30.7117 65.9185 27.5806 69.0215 23.7196 69.0215C19.8586 69.0215 16.7275 65.9185 16.7275 62.0923C16.7275 58.266 19.8586 55.1631 23.7196 55.1631Z" fill="#1B8284"/>
<path fill-rule="evenodd" clip-rule="evenodd" d="M49.5749 57.2547C52.2707 57.2547 54.4563 59.4206 54.4563 62.0923C54.4563 64.7639 52.2707 66.9299 49.5749 66.9299C46.879 66.9299 44.6934 64.7639 44.6934 62.0923C44.6934 59.4206 46.879 57.2547 49.5749 57.2547Z" fill="#1B8284"/>
<path d="M348.796 65.8301C346.044 65.8301 344.059 64.9164 342.841 63.089C341.668 61.216 341.082 58.8176 341.082 55.8939C341.082 54.8432 341.127 53.8153 341.217 52.8103C341.352 51.8052 341.488 50.8002 341.623 49.7951C341.758 48.7901 341.894 47.8079 342.029 46.8486C342.164 45.8892 342.277 44.9755 342.367 44.1075C341.42 44.3816 340.473 44.5187 339.525 44.5187C338.533 44.5187 338.036 44.1075 338.036 43.2852C338.036 42.4172 338.42 41.3665 339.187 40.1331C339.954 38.8539 340.901 37.5976 342.029 36.3642C343.202 35.1307 344.353 34.1028 345.48 33.2805C346.653 32.4126 347.646 31.9786 348.458 31.9786C349.451 31.9786 349.947 32.8465 349.947 34.5825C349.947 35.0394 349.902 35.519 349.812 36.0216C349.766 36.4784 349.699 36.9581 349.609 37.4606C350.466 37.2779 351.323 37.118 352.18 36.9809C353.082 36.8439 353.94 36.7753 354.752 36.7753C355.789 36.7753 356.579 36.9581 357.12 37.3235C357.707 37.689 358 38.3971 358 39.4478C358 40.5442 357.729 41.6406 357.188 42.737C356.692 43.8334 356.128 44.3816 355.496 44.3816C355.361 44.3816 355.135 44.3588 354.819 44.3131C354.504 44.2674 354.12 44.1989 353.669 44.1075C353.082 43.9705 352.338 43.8334 351.436 43.6964C350.533 43.5593 349.451 43.4908 348.187 43.4908C347.872 44.907 347.578 46.3689 347.308 47.8764C347.082 49.3383 346.969 50.6631 346.969 51.8509C346.969 54.5005 347.623 56.305 348.932 57.2644C350.24 58.2238 352.135 58.7034 354.616 58.7034C355.383 58.7034 355.925 58.8405 356.241 59.1146C356.556 59.343 356.714 59.777 356.714 60.4166C356.714 61.9241 355.947 63.2033 354.413 64.254C352.879 65.3047 351.007 65.8301 348.796 65.8301Z" fill="#383838"/>
<path d="M319.841 65.83C319.095 65.83 318.49 65.6895 318.024 65.4085C317.605 65.1742 317.465 64.7526 317.605 64.1437C318.117 62.1294 318.537 60.0917 318.863 58.0306C319.235 55.9226 319.422 53.9083 319.422 51.9877C319.422 49.505 319.259 47.7015 318.932 46.5773C318.653 45.4062 318.257 44.6098 317.745 44.1882C317.232 43.7198 316.603 43.3685 315.858 43.1342C315.532 42.9937 315.229 42.8063 314.95 42.5721C314.717 42.3379 314.601 42.01 314.601 41.5884C314.601 40.9326 314.857 40.2065 315.369 39.4102C315.882 38.6138 316.603 37.9346 317.535 37.3725C318.467 36.7635 319.538 36.459 320.749 36.459C322.333 36.459 323.427 37.0211 324.033 38.1454C324.685 39.2228 325.011 40.6515 325.011 42.4316C325.849 40.5578 326.874 39.0823 328.085 38.0049C329.343 36.8806 330.903 36.3185 332.767 36.3185C334.024 36.3185 335.072 36.5995 335.911 37.1617C336.749 37.7238 337.168 38.6372 337.168 39.902C337.168 41.1668 336.749 42.3613 335.911 43.4856C335.119 44.563 334.304 45.1017 333.465 45.1017C333.325 45.1017 333.162 45.0783 332.976 45.0314C332.79 44.9846 332.627 44.8675 332.487 44.6801C331.881 43.9306 331.136 43.5558 330.251 43.5558C328.9 43.5558 327.713 44.4459 326.688 46.2259C325.663 48.006 325.104 50.4653 325.011 53.6038C325.058 54.7749 325.081 55.9694 325.081 57.1874C325.128 58.4053 325.151 59.2953 325.151 59.8575C325.151 61.5907 324.662 63.0194 323.684 64.1437C322.752 65.2679 321.471 65.83 319.841 65.83Z" fill="#383838"/>
<path d="M288.484 65.83C285.636 65.83 283.333 64.9675 281.577 63.2425C279.868 61.4709 279.013 58.9533 279.013 55.6898C279.013 53.3587 279.464 51.0509 280.366 48.7665C281.316 46.4354 282.669 44.3374 284.425 42.4725C286.182 40.6077 288.294 39.1158 290.763 37.9969C293.231 36.8779 296.009 36.3185 299.094 36.3185C301.943 36.3185 304.364 36.808 306.358 37.7871C308.399 38.7195 309.42 40.0016 309.42 41.6334C309.42 42.053 309.372 42.6124 309.277 43.3117C309.182 43.9644 309.064 44.5006 308.921 44.9202C308.779 45.2932 308.565 45.6428 308.28 45.9692C308.043 46.2489 307.711 46.3888 307.283 46.3888C307.093 46.3888 306.737 46.3188 306.215 46.179C306.025 47.158 305.883 48.1138 305.788 49.0462C305.693 49.9787 305.646 50.9111 305.646 51.8435C305.646 53.6151 305.907 55.2003 306.429 56.5989C306.999 57.951 308.09 58.7902 309.705 59.1165C310.132 59.2098 310.464 59.3496 310.701 59.5361C310.986 59.7226 311.129 60.1189 311.129 60.725C311.129 61.2378 310.986 61.8905 310.701 62.6831C310.464 63.4756 309.966 64.1983 309.206 64.851C308.494 65.4571 307.45 65.7601 306.073 65.7601C304.221 65.7601 302.797 65.1074 301.8 63.802C300.803 62.45 300.305 60.5385 300.305 58.0675C299.023 60.352 297.385 62.2169 295.391 63.6621C293.445 65.1074 291.143 65.83 288.484 65.83ZM290.763 58.5571C292.662 58.5571 294.323 57.9743 295.747 56.8087C297.219 55.6432 298.358 54.1746 299.165 52.403C299.688 51.2841 300.091 50.0719 300.376 48.7665C300.661 47.4145 300.851 46.0857 300.946 44.7803C300.139 44.4074 299.213 44.1043 298.169 43.8712C297.124 43.6381 296.032 43.5215 294.893 43.5215C291.997 43.5215 289.6 44.3607 287.701 46.0391C285.849 47.7175 284.924 49.8155 284.924 52.333C284.924 54.1979 285.446 55.7131 286.49 56.8787C287.535 57.9976 288.959 58.5571 290.763 58.5571Z" fill="#383838"/>
<path d="M258.045 65.8301C254.765 65.8301 251.877 65.0866 249.382 63.5996C246.934 62.1126 245.039 59.9983 243.7 57.2567C242.36 54.5151 241.69 51.2623 241.69 47.4984C241.69 43.9204 242.267 40.4818 243.422 37.1825C244.577 33.8833 246.241 30.9326 248.412 28.3304C250.583 25.7282 253.194 23.6603 256.243 22.1269C259.292 20.5935 262.734 19.8267 266.569 19.8267C269.433 19.8267 271.789 20.2682 273.637 21.1511C275.485 22.034 276.409 23.3351 276.409 25.0544C276.409 25.8908 276.178 26.7272 275.716 27.5637C275.301 28.3536 274.746 29.0274 274.053 29.585C273.36 30.1426 272.644 30.4214 271.905 30.4214C271.443 30.4214 271.073 30.3053 270.796 30.0729C269.549 29.2365 268.324 28.6324 267.123 28.2607C265.922 27.8425 264.536 27.6334 262.965 27.6334C259.685 27.6334 256.913 28.4001 254.649 29.9335C252.385 31.4205 250.653 33.3954 249.452 35.8582C248.297 38.321 247.719 40.9929 247.719 43.8739C247.719 46.662 248.25 49.1248 249.313 51.2623C250.376 53.3999 251.854 55.0727 253.748 56.2809C255.642 57.489 257.86 58.0931 260.401 58.0931C262.434 58.0931 264.397 57.6982 266.292 56.9082C268.232 56.0718 269.941 54.9333 271.42 53.4928C272.067 52.8887 272.713 52.5867 273.36 52.5867C273.915 52.5867 274.307 52.819 274.538 53.2837C274.769 53.7484 274.885 54.2131 274.885 54.6777C274.885 55.4677 274.654 56.3738 274.192 57.3961C273.73 58.3719 273.014 59.3478 272.044 60.3236C270.334 62.0429 268.232 63.3905 265.737 64.3663C263.242 65.3421 260.678 65.8301 258.045 65.8301Z" fill="#383838"/>
<path d="M208.249 65.83C207.61 65.83 207.061 65.6659 206.605 65.3376C206.148 65.0563 205.965 64.6577 206.056 64.1418C206.742 60.3902 207.313 56.5916 207.77 52.7462C208.272 48.8538 208.523 44.9381 208.523 40.9988C208.523 37.5286 208.409 34.3866 208.181 31.5728C207.952 28.7591 207.221 26.0626 205.988 23.4833C205.759 22.9675 205.577 22.522 205.44 22.1468C205.303 21.7716 205.234 21.4199 205.234 21.0917C205.234 20.2006 205.737 19.3331 206.742 18.4889C207.792 17.6448 208.889 17.2228 210.031 17.2228C211.63 17.2228 212.726 18.2545 213.32 20.3179C213.914 22.3813 214.211 25.4295 214.211 29.4625C214.211 34.2928 213.937 38.5134 213.389 42.1243C212.84 45.6884 212.361 48.4083 211.95 50.2842L212.224 50.4248C213.137 47.9394 214.234 45.618 215.513 43.4608C216.838 41.3037 218.368 39.5685 220.104 38.2554C221.84 36.9424 223.85 36.2858 226.134 36.2858C228.556 36.2858 230.383 37.0362 231.616 38.5368C232.896 40.0375 233.535 41.8898 233.535 44.0939C233.535 45.0318 233.444 45.9463 233.261 46.8373C233.078 47.6815 232.873 48.5021 232.644 49.2994C232.416 50.0497 232.21 50.8235 232.028 51.6207C231.845 52.371 231.753 53.1448 231.753 53.942C231.753 55.3958 232.096 56.5916 232.781 57.5295C233.467 58.4205 234.38 59.0536 235.522 59.4288C235.842 59.5226 236.071 59.6633 236.208 59.8509C236.39 59.9915 236.482 60.2729 236.482 60.695C236.482 61.117 236.345 61.7267 236.071 62.5239C235.796 63.3211 235.294 64.0715 234.563 64.7749C233.832 65.4314 232.758 65.7597 231.342 65.7597C229.515 65.7597 228.099 65.1032 227.094 63.7901C226.089 62.4301 225.586 60.695 225.586 58.5847C225.586 57.553 225.678 56.4978 225.86 55.4192C226.089 54.3406 226.34 53.3089 226.614 52.3241C226.842 51.3393 227.048 50.4248 227.231 49.5807C227.413 48.6897 227.505 47.9394 227.505 47.3297C227.505 45.1725 226.408 44.0939 224.216 44.0939C222.388 44.0939 220.767 44.7739 219.35 46.1339C217.98 47.447 216.792 49.1352 215.787 51.1986C214.828 53.2151 214.028 55.302 213.389 57.4592V59.8509C213.389 61.586 212.886 63.0163 211.881 64.1418C210.922 65.2673 209.711 65.83 208.249 65.83Z" fill="#383838"/>
<path d="M187.101 65.83C185.414 65.83 183.842 65.5736 182.383 65.0608C180.924 64.5479 179.738 63.8253 178.826 62.8929C177.915 61.9604 177.459 60.8415 177.459 59.5361C177.459 58.8368 177.618 58.1841 177.937 57.578C178.302 56.9253 178.872 56.5989 179.647 56.5989C180.057 56.5989 180.491 56.7155 180.946 56.9486C181.767 57.4148 182.816 57.8577 184.092 58.2773C185.369 58.6503 186.714 58.8368 188.127 58.8368C189.723 58.8368 191.136 58.6037 192.367 58.1375C193.598 57.6712 194.214 57.0185 194.214 56.1793C194.214 55.5266 193.735 55.0604 192.777 54.7807C191.866 54.501 190.315 54.1979 188.127 53.8716C186.623 53.5918 185.164 53.2655 183.75 52.8925C182.337 52.5195 181.174 51.8901 180.263 51.0043C179.351 50.0719 178.895 48.7199 178.895 46.9482C178.895 45.2232 179.351 43.5682 180.263 41.983C181.22 40.3513 182.633 38.9992 184.503 37.9269C186.372 36.8546 188.651 36.3185 191.341 36.3185C192.755 36.3185 194.122 36.4817 195.444 36.808C196.767 37.1344 197.861 37.6239 198.727 38.2766C199.593 38.9293 200.026 39.7452 200.026 40.7242C200.026 41.5634 199.73 42.3327 199.137 43.032C198.59 43.7313 197.929 44.3141 197.154 44.7803C196.425 45.1999 195.809 45.4097 195.308 45.4097C194.943 45.4097 194.51 45.1533 194.008 44.6405C193.233 43.9878 192.367 43.5448 191.41 43.3117C190.498 43.032 189.586 42.8921 188.674 42.8921C187.306 42.8921 186.189 43.1019 185.323 43.5215C184.503 43.9411 184.092 44.4773 184.092 45.13C184.092 45.7361 184.434 46.2256 185.118 46.5986C185.848 46.9715 186.737 47.2513 187.785 47.4378C188.834 47.5776 189.837 47.7175 190.794 47.8574C193.438 48.2303 195.536 48.883 197.086 49.8155C198.636 50.7013 199.411 52.2864 199.411 54.5709C199.411 56.3425 198.909 58.1141 197.906 59.8858C196.949 61.6108 195.536 63.0327 193.666 64.1517C191.843 65.2706 189.654 65.83 187.101 65.83Z" fill="#383838"/>
<path d="M158.274 65.83C154.751 65.83 151.993 64.8253 150 62.8158C148.053 60.7596 147.079 57.9089 147.079 54.2638C147.079 50.9457 147.798 47.9315 149.235 45.221C150.672 42.5105 152.596 40.3608 155.006 38.7719C157.463 37.1363 160.152 36.3185 163.072 36.3185C165.854 36.3185 168.079 37.0195 169.748 38.4214C171.417 39.7767 172.251 41.5993 172.251 43.8891C172.251 45.7117 171.695 47.3941 170.582 48.9363C169.47 50.4784 167.986 51.7168 166.132 52.6515C164.278 53.5394 162.215 53.9834 159.943 53.9834C157.162 53.9834 154.89 53.3525 153.129 52.0907C153.175 54.2404 153.894 55.9695 155.284 57.278C156.722 58.5865 158.553 59.2408 160.778 59.2408C162.122 59.2408 163.49 59.0071 164.88 58.5398C166.317 58.0257 167.546 57.3481 168.566 56.5069C169.215 55.9461 169.817 55.6657 170.374 55.6657C170.837 55.6657 171.208 55.8293 171.486 56.1564C171.811 56.4368 171.973 56.8107 171.973 57.278C171.973 58.3061 171.092 59.6614 169.331 61.3437C166.225 64.3346 162.539 65.83 158.274 65.83ZM159.317 49.3568C160.986 49.3568 162.377 49.0064 163.49 48.3054C164.602 47.6044 165.158 46.7165 165.158 45.6416C165.158 44.7537 164.788 44.0761 164.046 43.6087C163.304 43.0947 162.284 42.8377 160.986 42.8377C159.271 42.8377 157.765 43.305 156.467 44.2396C155.215 45.1276 154.311 46.3893 153.755 48.025C154.404 48.4456 155.238 48.7727 156.258 49.0064C157.278 49.24 158.298 49.3568 159.317 49.3568Z" fill="#383838"/>
<path d="M128.884 65.83C128.138 65.83 127.533 65.6895 127.067 65.4085C126.648 65.1742 126.508 64.7526 126.648 64.1437C127.16 62.1294 127.58 60.0917 127.906 58.0306C128.278 55.9226 128.465 53.9083 128.465 51.9877C128.465 49.505 128.301 47.7015 127.975 46.5773C127.696 45.4062 127.3 44.6098 126.788 44.1882C126.275 43.7198 125.646 43.3685 124.901 43.1342C124.575 42.9937 124.272 42.8063 123.993 42.5721C123.76 42.3379 123.644 42.01 123.644 41.5884C123.644 40.9326 123.9 40.2065 124.412 39.4102C124.924 38.6138 125.646 37.9346 126.578 37.3725C127.51 36.7635 128.581 36.459 129.792 36.459C131.376 36.459 132.47 37.0211 133.076 38.1454C133.728 39.2228 134.054 40.6515 134.054 42.4316C134.892 40.5578 135.917 39.0823 137.128 38.0049C138.386 36.8806 139.946 36.3185 141.809 36.3185C143.067 36.3185 144.115 36.5995 144.954 37.1617C145.792 37.7238 146.211 38.6372 146.211 39.902C146.211 41.1668 145.792 42.3613 144.954 43.4856C144.162 44.563 143.347 45.1017 142.508 45.1017C142.368 45.1017 142.205 45.0783 142.019 45.0314C141.833 44.9846 141.67 44.8675 141.53 44.6801C140.924 43.9306 140.179 43.5558 139.294 43.5558C137.943 43.5558 136.756 44.4459 135.731 46.2259C134.706 48.006 134.147 50.4653 134.054 53.6038C134.101 54.7749 134.124 55.9694 134.124 57.1874C134.17 58.4053 134.194 59.2953 134.194 59.8575C134.194 61.5907 133.705 63.0194 132.727 64.1437C131.795 65.2679 130.514 65.83 128.884 65.83Z" fill="#383838"/>
<path d="M99.381 64.962C98.8064 64.962 98.2079 64.8717 97.5855 64.6909C97.0109 64.5101 96.5082 64.0808 96.0773 63.4029C95.6943 62.725 95.5027 61.6855 95.5027 60.2845C95.5027 59.3806 95.5985 58.2056 95.79 56.7594C95.9815 55.268 96.2449 53.3472 96.58 50.9972C96.8194 49.5058 97.0828 47.5172 97.37 45.0316C97.7052 42.5007 97.8728 39.8569 97.8728 37.1001C97.8728 35.8798 97.8249 34.5918 97.7291 33.236C97.6334 31.835 97.4419 30.5695 97.1546 29.4397C96.58 29.5753 96.1491 29.6431 95.8618 29.6431C95.5746 29.6431 95.3591 29.5753 95.2155 29.4397C95.0718 29.2589 95 28.9426 95 28.4906C95 27.5868 95.0958 26.6829 95.2873 25.779C95.5267 24.8299 95.8858 24.039 96.3646 23.4063C96.8434 22.7736 97.394 22.3217 98.0164 22.0505C98.6867 21.7794 99.381 21.5986 100.099 21.5082C101.296 21.3726 102.804 21.2596 104.624 21.1692C106.491 21.0337 108.43 20.9207 110.441 20.8303C112.5 20.7399 114.367 20.6947 116.043 20.6947C118.293 20.6947 119.945 20.7173 120.999 20.7625C122.1 20.8077 122.938 20.8755 123.512 20.9659C124.757 21.1466 125.38 21.7794 125.38 22.864C125.38 23.6323 125.212 24.3328 124.877 24.9655C124.59 25.553 124.23 26.0954 123.8 26.5925C123.273 27.3156 122.698 27.8353 122.076 28.1517C121.501 28.4228 120.735 28.5132 119.778 28.4228C118.964 28.3325 117.839 28.2647 116.402 28.2195C115.014 28.1291 113.41 28.0839 111.59 28.0839C110.824 28.0839 109.819 28.1065 108.574 28.1517C107.329 28.1969 106.012 28.2647 104.624 28.3551C104.576 29.8916 104.432 31.6542 104.193 33.6427C103.953 35.5861 103.69 37.5746 103.403 39.6083C104.696 39.5179 106.252 39.4501 108.071 39.4049C109.891 39.3146 111.758 39.2468 113.673 39.2016C115.588 39.1564 117.288 39.1338 118.772 39.1338C119.634 39.1338 120.256 39.2468 120.639 39.4727C121.023 39.6535 121.214 40.0828 121.214 40.7608C121.214 41.5291 120.999 42.3651 120.568 43.269C120.185 44.1277 119.658 44.8734 118.988 45.5061C118.365 46.1388 117.695 46.4326 116.977 46.3874C115.78 46.297 114.08 46.2292 111.878 46.184C109.723 46.1388 107.449 46.1162 105.055 46.1162H102.756C102.661 47.1105 102.565 48.1048 102.469 49.099C102.421 50.0481 102.397 50.9294 102.397 51.7429C102.397 53.3246 102.565 54.7256 102.9 55.9459C103.235 57.1209 103.882 58.1378 104.839 58.9965C105.462 59.584 105.773 60.2619 105.773 61.0302C105.773 62.0244 105.174 62.9283 103.977 63.7418C102.78 64.5553 101.248 64.962 99.381 64.962Z" fill="#383838"/>
<defs>
<linearGradient id="paint0_linear_233_32" x1="86.9481" y1="0.981045" x2="18.5714" y2="69.129" gradientUnits="userSpaceOnUse">
<stop stop-color="#D3FFA7"/>
<stop offset="1" stop-color="#B8FE72"/>
</linearGradient>
<linearGradient id="paint1_linear_233_32" x1="101.23" y1="17.3105" x2="10.8515" y2="109.635" gradientUnits="userSpaceOnUse">
<stop stop-color="#D3FFA7"/>
<stop offset="1" stop-color="#B8FE72"/>
</linearGradient>
</defs>
</svg>